<svg xmlns="http://www.w3.org/2000/svg" xmlns:xlink="http://www.w3.org/1999/xlink" version="1.1" id="Layer_1" x="0px" y="0px" enable-background="new 0 0 496 496" xml:space="preserve" viewBox="15.78 152.83 473.21 207.67">
<path fill="#191918" opacity="1.000000" stroke="none" d=" M165.749496,237.059906   C153.381897,242.845901 144.837173,241.176880 138.543503,231.987030   C133.619049,224.796448 134.144058,216.957458 139.989395,210.494034   C146.037338,203.806549 153.965302,200.430328 162.357590,197.951584   C164.682999,197.264755 167.120972,196.954681 166.674332,193.664688   C166.274521,190.719803 164.701401,188.732529 161.659607,188.254364   C159.141098,187.858490 156.662308,188.094391 154.381332,189.358871   C152.925232,190.166122 151.495651,191.023041 150.073700,191.889709   C143.795303,195.716263 140.305573,195.930588 137.497665,192.642990   C134.674896,189.337997 135.489624,183.727753 139.887985,179.115860   C152.334579,166.065033 175.187790,167.793823 182.360779,185.285004   C187.067917,196.763245 188.084473,208.789108 189.205444,220.870605   C189.311935,222.018234 189.340088,223.173126 189.425522,224.697769   C193.522079,223.169907 197.417572,221.938110 201.122879,220.281036   C206.135269,218.039398 207.074661,214.456665 204.040695,209.734482   C202.061020,206.653198 199.749725,203.784897 197.771896,200.702530   C191.732864,191.290939 192.793564,181.348816 200.935257,173.579514   C207.286346,167.518921 214.767471,164.485306 223.738403,166.555252   C227.191910,167.352112 229.384018,169.436493 230.022278,172.873779   C230.697388,176.509460 228.606064,178.869675 225.779648,180.678024   C224.238708,181.663910 222.574722,182.455231 221.006531,183.401123   C213.530411,187.910507 213.058167,193.222122 219.663818,198.875092   C222.321152,201.149170 225.174393,203.202362 226.578247,206.607834   C228.011124,210.083694 228.513336,213.512161 227.540375,217.295959   C224.010376,231.023972 209.048111,241.530380 195.959900,239.464417   C193.030945,239.002060 190.793350,237.439270 188.495163,235.896362   C181.836685,245.891907 175.308868,243.583633 170.415039,234.790390   C168.571396,234.631882 167.560684,236.268631 165.749496,237.059906  M155.714233,219.597321   C156.386490,222.806519 158.630951,222.997955 161.021500,222.009155   C164.076721,220.745422 168.189728,220.594421 168.720749,216.081741   C169.236984,211.694839 167.646927,210.511932 163.567627,212.224701   C160.283051,213.603806 157.398392,215.513016 155.714233,219.597321  z"/>
<path fill="#191918" opacity="1.000000" stroke="none" d=" M343.299316,254.679657   C343.727631,253.435684 344.008850,252.491425 344.444061,251.030197   C340.842010,251.504440 337.696899,252.620346 334.338531,251.996582   C319.768219,249.290359 313.050232,240.143692 314.824707,223.466385   C316.278290,209.805115 322.290802,197.988449 332.464172,188.573517   C336.314697,185.010040 340.907471,182.587601 346.323334,182.365540   C353.372833,182.076508 358.560883,184.919937 361.017334,191.495590   C362.223816,192.122360 362.879730,191.516922 363.574341,191.092453   C370.417480,186.910706 374.266968,188.891174 374.233612,197.054031   C374.175385,211.303665 370.505127,225.024292 367.187286,238.740204   C364.371155,250.382263 361.168762,261.941589 354.710724,272.281708   C344.531372,288.580170 327.215424,291.893616 311.886200,280.393097   C309.025208,278.246674 306.831512,275.611450 305.525391,272.241180   C304.166687,268.735077 304.874115,265.653412 307.464630,263.073059   C310.186127,260.362213 313.368500,260.284058 316.646576,262.021729   C317.967010,262.721680 319.213104,263.566071 320.471619,264.377991   C328.968506,269.859741 335.131104,268.493530 340.598541,259.834930   C341.571838,258.293488 342.307068,256.601715 343.299316,254.679657  M341.833618,233.671753   C350.279266,229.776367 353.322693,223.050674 351.718750,211.741135   C351.295197,208.754623 350.850250,205.560394 347.469757,204.502167   C343.984558,203.411133 341.343903,205.456299 339.215912,207.885834   C334.484924,213.287155 332.806183,219.697067 333.295776,226.801636   C333.684326,232.439301 335.206116,233.899597 341.833618,233.671753  z"/>
<path fill="#191918" opacity="1.000000" stroke="none" d=" M49.432816,199.296417   C48.566006,196.566803 47.942039,194.156494 47.185440,191.788559   C46.590221,189.925690 46.255390,187.587616 43.673466,187.545670   C41.429878,187.509186 40.201298,189.253922 39.155365,191.020065   C37.488140,193.835312 37.267056,197.027206 36.883202,200.148529   C35.640312,210.255173 37.090519,220.080505 40.907059,229.434265   C43.665668,236.195190 47.904018,237.555145 54.616623,234.550034   C57.348305,233.327103 59.943878,231.800385 62.674442,230.574631   C66.064590,229.052765 69.607674,227.529694 72.832047,230.821533   C76.187523,234.247208 76.051476,238.349594 74.358101,242.426331   C68.811234,255.780243 51.459431,262.054260 38.615360,255.466599   C29.990767,251.043091 24.640394,243.784027 21.231461,235.014084   C13.414337,214.903488 13.763137,194.994217 23.886246,175.755554   C27.555422,168.782394 33.343830,163.822800 41.490978,162.169296   C45.062565,161.444427 48.402519,161.644592 51.718636,163.109436   C62.329845,167.796783 70.655594,185.875626 67.368683,196.987747   C66.180176,201.005753 63.970753,203.742371 59.583897,204.360565   C55.183659,204.980667 51.656403,203.918030 49.432816,199.296417  z"/>
<path fill="#191918" opacity="1.000000" stroke="none" d=" M104.522964,183.215088   C116.555054,177.938934 124.390808,181.312561 127.690529,193.609894   C131.196091,206.674332 132.138580,220.152969 132.035172,233.638290   C131.983871,240.328888 129.007324,244.314438 124.892670,244.882980   C120.743843,245.456238 117.617722,242.249023 115.637833,235.469101   C113.387512,227.763184 113.691231,219.639832 111.755562,211.889816   C110.887016,208.412369 110.656151,204.205765 105.452660,204.436874   C100.815636,204.642822 98.521538,207.814011 98.203835,213.421173   C97.752144,221.393204 99.882988,229.341217 98.335342,237.301193   C97.988686,239.084137 97.562119,240.873062 96.946251,242.577545   C95.763176,245.851852 93.299713,247.810303 89.873779,248.080124   C86.388229,248.354645 84.454987,245.947647 83.005150,243.175476   C79.533989,236.538467 78.659782,229.204453 77.914246,221.957764   C76.535980,208.560944 75.130943,195.127518 75.836494,181.629333   C76.217056,174.348419 76.443748,166.976990 79.249634,160.064545   C80.262535,157.569214 81.448395,154.986115 84.626389,154.811493   C87.944366,154.629196 89.719238,156.955978 91.042183,159.561066   C94.331200,166.037613 95.754478,173.026260 96.294495,180.200775   C96.482475,182.698212 96.499702,185.183731 97.802414,187.888840   C99.973259,186.369537 102.084892,184.891693 104.522964,183.215088  z"/>
<path fill="#191918" opacity="1.000000" stroke="none" d=" M313.342529,196.136581   C313.364380,210.852158 309.611572,224.204376 303.745300,237.044434   C302.425903,239.932266 300.805023,242.697327 298.495667,244.895462   C296.317017,246.969208 293.857391,249.094513 290.547455,247.707993   C287.549194,246.452026 286.915649,243.498398 286.741913,240.626114   C286.399170,234.960251 286.842316,229.378647 288.240753,223.809509   C290.015686,216.741135 292.348389,209.755859 292.626831,202.381897   C292.719940,199.916931 293.118561,196.884583 290.085175,196.006790   C287.316223,195.205460 286.225647,197.985779 284.848328,199.784607   C281.327240,204.383224 280.734375,209.852570 280.358582,215.346985   C279.937500,221.504135 279.156128,227.601059 277.170502,233.455765   C276.433624,235.628433 275.371582,237.796692 273.999146,239.622116   C272.130280,242.107849 269.519104,243.720657 266.200287,243.026825   C263.072754,242.373001 261.614868,239.956635 260.681946,237.139252   C259.066315,232.260269 259.422852,227.216354 259.874298,222.276688   C260.962402,210.370377 262.387115,198.494675 263.692017,186.608398   C264.040741,183.431885 265.043182,180.446930 266.487701,177.605286   C268.111450,174.411087 270.442566,172.199661 274.282043,172.412201   C277.826813,172.608429 279.343353,175.203964 280.566742,178.062576   C281.010101,179.098450 281.477600,180.123962 282.121704,181.577667   C289.783752,176.314270 297.893127,174.200378 306.063354,179.041397   C312.097046,182.616486 313.150146,189.131287 313.342529,196.136581  z"/>
<path fill="#191918" opacity="1.000000" stroke="none" d=" M250.634125,231.311310   C249.826447,233.012039 249.242630,234.390076 248.505173,235.680298   C246.810226,238.645706 244.302872,240.511902 240.792480,240.130020   C237.476562,239.769302 236.395706,236.985977 235.363876,234.287796   C233.349533,229.020493 233.646774,223.517471 233.635452,218.043213   C233.612762,207.074188 234.092361,196.145020 236.730286,185.437805   C237.321671,183.037460 238.155334,180.648865 239.232498,178.426971   C240.993240,174.795029 243.571686,172.016312 248.116928,172.585815   C252.495743,173.134445 253.354340,176.799118 254.181763,180.162216   C255.011185,183.533524 255.484299,186.989044 255.338333,190.518066   C254.776337,204.105026 254.408417,217.707962 250.634125,231.311310  z"/>
<path fill="#191918" opacity="1.000000" stroke="none" d=" M367.204224,325.184692   C365.256165,325.016022 363.755890,324.939087 362.292145,324.666351   C355.723572,323.442291 351.542480,320.274445 351.175751,315.582336   C350.739563,310.001312 353.948822,306.085815 358.431244,303.391937   C365.491974,299.148468 373.125916,298.428070 381.008026,300.765045   C383.531799,301.513306 385.955444,302.796844 385.085052,305.980652   C384.193054,309.243713 381.672333,309.613312 378.709991,308.643860   C372.225098,306.521515 366.261383,307.381073 361.039856,311.991974   C360.677917,312.311615 360.414490,312.767792 360.183899,313.202209   C360.035980,313.480835 360.032440,313.836151 359.901978,314.449677   C361.493378,316.639862 363.985443,316.595032 366.446075,316.664764   C371.252289,316.800934 376.087372,316.306183 380.824524,317.700775   C386.673584,319.422699 390.793793,324.166565 391.110687,329.801819   C391.367920,334.376312 387.759766,339.083282 382.115723,341.171875   C375.243896,343.714813 368.200562,344.311951 361.082306,342.268890   C358.169128,341.432739 355.540649,339.967133 353.483337,337.681488   C351.719788,335.722260 350.291840,333.443604 352.473114,331.071106   C354.605957,328.751343 356.847107,329.620636 359.011139,331.515808   C365.083221,336.833557 371.931610,335.686279 378.753967,333.492493   C380.583740,332.904083 382.744354,331.834076 382.295715,329.328918   C381.869812,326.950745 379.899506,325.638153 377.635864,325.432953   C374.333191,325.133575 370.992981,325.248169 367.204224,325.184692  z"/>
<path fill="#191918" opacity="1.000000" stroke="none" d=" M165.484436,267.022552   C171.676071,266.192719 177.460312,265.473419 183.255615,266.787537   C185.979950,267.405273 188.729843,268.254669 188.130875,271.834167   C187.539597,275.367767 184.826111,275.653748 181.971375,274.916687   C179.007462,274.151398 176.015305,274.248871 173.035461,274.377472   C165.607727,274.698120 160.117157,276.917084 156.936707,284.970795   C154.199524,291.901978 151.784073,298.388306 152.176743,305.969269   C152.835983,318.696289 164.482864,327.421936 176.890411,324.038239   C178.013474,323.731964 179.103790,323.294556 180.236221,323.035919   C182.615356,322.492554 184.131027,323.722321 184.909409,325.773163   C185.650970,327.726990 184.943619,329.477356 183.138596,330.470337   C181.705246,331.258820 180.109192,332.005493 178.514206,332.206818   C163.440460,334.109253 145.399948,328.452484 143.658463,306.538940   C142.632614,293.630798 148.318222,283.332062 154.403275,273.022400   C156.639145,269.234283 161.010498,268.194153 165.484436,267.022552  z"/>
<path fill="#191918" opacity="1.000000" stroke="none" d=" M451.359070,301.325073   C449.378754,298.535522 448.801605,295.973694 451.809143,294.169464   C454.549530,292.525543 456.453796,294.242401 458.049805,296.466614   C462.897064,303.221771 467.792908,309.942078 473.169769,317.366302   C476.347137,310.631714 477.365448,304.005981 478.596008,297.464935   C479.155884,294.488922 479.840210,291.578033 481.523254,289.055054   C482.718170,287.263794 484.412201,286.208649 486.635712,287.462646   C488.587433,288.563354 489.411591,290.129944 488.787354,292.460724   C485.571259,304.468475 483.398102,316.870941 478.948669,328.397491   C475.201752,338.104218 471.138458,347.802277 466.729889,357.294006   C465.604553,359.716919 463.944672,361.210785 461.238800,360.159698   C458.182953,358.972626 458.268982,356.464569 459.285370,353.898224   C462.226257,346.472595 465.032013,338.984100 468.278748,331.693054   C469.785034,328.310394 469.246552,325.873383 467.123383,323.059143   C461.810638,316.017273 456.752411,308.783356 451.359070,301.325073  z"/>
<path fill="#191918" opacity="1.000000" stroke="none" d=" M309.884094,336.587708   C300.158295,333.122803 296.606110,319.693451 302.859406,311.416626   C309.765106,302.276276 326.696594,297.402557 337.305969,301.501221   C346.548828,305.071899 350.014557,315.116394 343.795044,322.609131   C335.230164,332.927307 323.911713,337.851349 309.884094,336.587708  M308.315582,319.037445   C308.370026,326.805420 310.329834,329.346680 316.215607,328.578186   C323.637421,327.609100 330.346222,324.755951 335.736664,319.440674   C340.284241,314.956512 339.034607,310.571442 332.906219,308.749237   C325.039215,306.410095 312.749420,311.202026 308.315582,319.037445  z"/>
<path fill="#191918" opacity="1.000000" stroke="none" d=" M431.991608,341.785339   C430.168060,339.001068 430.662872,336.254089 430.769440,333.641876   C431.008636,327.779724 429.964752,322.024048 429.633118,316.213287   C429.441498,312.855652 428.024170,311.055542 424.353241,311.120422   C421.372223,311.173096 418.378326,310.713043 415.396179,310.419067   C413.021759,310.184937 411.769745,308.746521 411.819672,306.422333   C411.871735,303.996246 413.476685,302.859100 415.731842,302.743042   C418.225250,302.614777 420.743530,302.514191 423.225250,302.716827   C427.330750,303.052002 427.920593,301.058533 427.443787,297.534576   C426.419037,289.960724 425.681885,282.347595 424.863312,274.746613   C424.738922,273.591583 424.749268,272.412903 424.801483,271.249817   C424.926117,268.473419 425.329163,265.436401 428.741699,265.288116   C432.375641,265.130249 433.371826,267.938599 433.290283,271.123322   C433.067780,279.811127 434.828552,288.329987 435.489716,296.943115   C435.782318,300.754700 437.042725,303.655670 441.970001,302.799774   C444.995239,302.274292 448.581543,302.427582 448.822601,306.541840   C449.065216,310.682037 445.333282,310.707550 442.403229,311.220856   C440.967133,311.472443 439.373322,310.947540 437.925140,312.237885   C438.030884,320.556030 439.784119,328.941742 439.193329,337.422668   C438.829865,342.639771 436.998413,343.857727 431.991608,341.785339  z"/>
<path fill="#191918" opacity="1.000000" stroke="none" d=" M200.816315,323.978394   C205.297623,330.851166 214.562134,330.626740 219.306442,323.909729   C222.100861,319.953369 222.566071,315.247467 223.610916,310.726715   C224.022644,308.945343 224.328384,307.135895 224.818344,305.377075   C225.432266,303.173187 226.927063,301.923401 229.262253,302.318848   C231.566620,302.709106 232.731796,304.387848 232.630524,306.627045   C232.156281,317.114044 231.970001,327.583374 233.201874,338.044006   C233.540375,340.918427 232.202438,342.978088 229.101059,343.197144   C225.974594,343.417969 225.264862,341.050629 224.873322,338.653229   C224.582230,336.870941 224.537018,335.048492 224.386093,333.288239   C222.036301,332.292328 220.810120,334.120117 219.311157,334.909058   C205.409058,342.226410 191.987152,334.421417 191.691284,318.735046   C191.612823,314.576263 191.702866,310.397766 192.035370,306.253967   C192.236130,303.752380 192.934525,300.884521 196.237381,301.052734   C199.580643,301.223053 200.451859,303.752380 200.319443,306.778564   C200.073639,312.397003 198.923401,318.038910 200.816315,323.978394  z"/>
<path fill="#191918" opacity="1.000000" stroke="none" d=" M243.266586,333.418945   C242.668243,323.504608 242.043564,314.044128 243.571320,304.592468   C243.915649,302.462128 244.375961,300.582428 246.636826,299.963959   C248.843628,299.360260 250.623734,300.210510 251.531494,302.341766   C252.874680,305.495270 255.140396,303.786926 257.052124,303.420654   C263.226257,302.237823 269.316895,301.658264 274.745819,305.731598   C276.556732,307.090332 277.916656,308.917389 276.271820,311.283417   C274.825226,313.364227 272.824127,313.710754 270.559692,312.639618   C270.259186,312.497498 269.973511,312.323975 269.681030,312.164856   C263.763702,308.945984 258.391693,311.588348 253.012985,313.782776   C251.390121,314.444855 251.161621,316.037506 251.234131,317.595154   C251.542770,324.224762 250.674759,330.894836 252.067154,337.493408   C252.625275,340.138397 252.312012,342.688446 248.926285,343.153564   C245.775772,343.586365 244.407440,341.534149 243.875854,338.824677   C243.557053,337.199738 243.514847,335.520569 243.266586,333.418945  z"/>
<path fill="#191918" opacity="1.000000" stroke="none" d=" M403.588013,343.282471   C399.555603,343.588074 398.410461,341.311707 398.734161,338.291351   C399.853821,327.845032 400.135803,317.415985 399.257721,306.929321   C399.036926,304.292450 399.716827,301.191437 403.397034,301.304810   C406.963715,301.414642 407.012665,304.275482 407.404846,307.077515   C408.730499,316.548126 408.465942,325.978424 407.290466,335.417755   C406.929443,338.316956 407.277771,341.554932 403.588013,343.282471  z"/>
<path fill="#191918" opacity="1.000000" stroke="none" d=" M281.006409,335.249481   C282.894989,327.892609 284.058136,320.874176 283.692993,313.664581   C283.642792,312.673584 283.646729,311.645538 283.850830,310.682404   C284.432861,307.936066 284.709106,304.565186 288.625427,304.900299   C292.542572,305.235535 292.285767,308.435547 292.251404,311.355408   C292.135590,321.201111 290.710175,330.862305 288.349426,340.403015   C287.594238,343.455200 287.254181,347.451843 282.831573,346.432068   C278.538208,345.442047 279.619690,341.740021 280.349152,338.599487   C280.574371,337.629822 280.714508,336.640381 281.006409,335.249481  z"/>
<path fill="#191918" opacity="1.000000" stroke="none" d=" M249.974731,152.826614   C253.219772,153.438644 256.031494,154.163773 256.218414,157.778854   C256.412872,161.539261 253.952499,163.513794 250.845200,164.629120   C247.645569,165.777588 244.295029,166.141998 241.667542,163.294586   C239.495438,160.940689 240.442322,156.714706 243.499100,154.728485   C245.321243,153.544540 247.401917,153.005188 249.974731,152.826614  z"/>
<path fill="#191918" opacity="1.000000" stroke="none" d=" M396.589478,293.481873   C396.486237,292.464569 396.377289,291.801758 396.461029,291.164215   C396.859192,288.133667 398.598419,286.323639 401.665985,286.333252   C404.025787,286.340637 405.729584,287.718933 406.177338,290.113953   C406.748138,293.167358 405.155823,295.121887 402.507111,296.336304   C399.679199,297.632874 397.774628,296.653839 396.589478,293.481873  z"/>
<path fill="#191918" opacity="1.000000" stroke="none" d=" M286.910339,300.062988   C282.339752,297.743683 281.449493,293.810852 284.576385,291.119019   C286.713806,289.278992 289.145782,288.967865 291.269012,291.040192   C293.540039,293.256805 293.536163,295.817444 291.185120,297.982300   C290.142609,298.942261 288.616821,299.377380 286.910339,300.062988  z"/>
</svg>