<svg version="1.1" id="Layer_1" xmlns="http://www.w3.org/2000/svg" xmlns:xlink="http://www.w3.org/1999/xlink" x="0px" y="0px"
	 width="100%" viewBox="0 0 2560 1440" enable-background="new 0 0 2560 1440" xml:space="preserve">
<path fill="none" opacity="1.000000" stroke="#000000" stroke-linecap="round" stroke-linejoin="round" stroke-width="13.000000"
	d="
M1477.000000,114.500000 
	C1473.939453,111.802979 1471.871826,108.371742 1471.094360,104.481155 
	C1470.264526,100.328171 1467.437622,98.731873 1463.983643,98.087502 
	C1460.616089,97.459305 1458.770996,99.974884 1456.956177,102.468117 
	C1454.421997,105.949837 1454.022339,110.057663 1452.998047,113.999489 
	C1451.086914,121.353043 1446.553467,127.310204 1442.479980,133.486801 
	C1432.775757,148.200836 1425.028076,163.606598 1422.889160,181.486740 
	C1421.787598,190.696213 1418.430176,198.925507 1411.136353,205.647934 
	C1403.531128,212.657379 1395.708740,219.799881 1389.405273,227.818604 
	C1384.875854,233.580688 1378.798584,237.256409 1374.364380,242.893311 
	C1369.282593,249.353378 1363.161499,254.995041 1357.502808,261.002625 
	C1355.319580,263.320404 1353.365479,265.898071 1350.965698,267.960114 
	C1340.379395,277.056000 1331.548096,287.752472 1323.638428,299.096497 
	C1317.953979,307.249084 1310.762085,313.961639 1304.304443,321.328613 
	C1298.128662,328.374207 1291.182495,334.856445 1284.430420,341.428558 
	C1276.613892,349.036896 1266.584595,353.255402 1256.699707,357.379303 
	C1252.153687,359.275848 1247.507324,361.004333 1243.026489,363.057831 
	C1239.096924,364.858765 1235.167114,365.119385 1230.996704,364.523193 
	C1224.322510,363.569061 1217.589478,363.591187 1210.963013,361.624481 
	C1197.754395,357.704224 1183.944946,355.538483 1171.099854,350.733246 
	C1155.559692,344.919769 1140.133789,338.649017 1125.397949,330.688904 
	C1110.808350,322.807770 1096.853271,314.027222 1082.978638,305.032959 
	C1078.099487,301.869995 1075.517334,302.386810 1072.569824,307.539948 
	C1067.998291,315.532623 1062.092285,322.095978 1053.985474,326.473145 
	C1041.853027,333.023987 1029.588867,331.449127 1018.065857,325.375092 
	C1002.458618,317.148132 991.616882,304.419128 985.775452,287.339111 
	C983.333313,285.626038 980.672729,286.034363 977.998962,287.498077 
	C967.334839,293.336090 956.147705,298.407135 946.158447,305.231903 
	C937.634827,311.055359 927.258057,314.407623 920.868713,323.406769 
	C919.244080,325.694946 916.161743,327.207855 913.448120,328.379822 
	C911.331360,329.293976 909.280212,330.309570 908.066162,332.046265 
	C901.625000,341.260742 891.508301,346.520050 884.078857,354.572723 
	C874.949036,364.468506 863.297974,372.176239 855.857910,383.240662 
	C849.677002,392.432251 841.039856,398.931122 834.442017,407.455139 
	C832.506042,409.956268 830.759766,412.469666 830.049500,415.511566 
	C829.454590,418.059509 828.402466,420.314240 826.475281,421.971252 
	C819.914612,427.612213 815.423279,434.606079 811.878784,442.445190 
	C810.447327,445.610992 807.746277,448.231964 805.485352,450.988007 
	C798.097778,459.993256 794.200256,470.727264 790.632874,481.543823 
	C789.647034,484.532837 788.407959,487.270294 786.425903,489.432037 
	C782.185791,494.056427 780.585266,499.324036 780.369446,505.495422 
	C780.228760,509.519653 778.882446,513.510986 777.990540,517.497864 
	C775.572083,528.308777 777.389709,539.120972 779.849426,549.416504 
	C781.818787,557.659302 783.219604,566.233948 787.374084,574.066772 
	C796.721313,591.690002 810.468384,604.257446 827.919250,613.650024 
	C841.543762,620.983154 856.205261,624.712891 871.053894,627.174866 
	C881.272949,628.869263 892.083557,628.348267 902.482605,627.323608 
	C924.188904,625.184753 945.297607,619.906433 966.025696,613.078064 
	C970.064575,611.747620 974.375305,610.974487 978.548218,610.296692 
	C980.283875,610.014771 981.025269,609.424011 981.996460,608.496277 
	C984.600525,606.008850 987.779724,604.440430 991.011658,603.026611 
	C995.951599,600.865479 999.752014,597.124878 1004.023193,594.032043 
	C1004.820801,593.454529 1004.861084,592.810303 1005.025024,592.005066 
	C1006.197754,586.246033 1007.648560,580.498840 1002.017334,575.978394 
	C999.780273,574.182617 998.519348,571.644348 997.498535,569.000549 
	C994.530945,561.315552 990.012939,558.678101 982.527283,561.084839 
	C976.113220,563.146912 969.656067,565.125977 963.471436,567.937195 
	C955.249451,571.674500 946.243103,572.738892 937.467468,574.319275 
	C934.099915,574.925598 930.946167,576.182922 927.535889,576.725586 
	C921.078430,577.753235 914.853271,577.861938 908.495300,576.522278 
	C899.058899,574.534119 889.444092,573.066162 881.022583,567.962769 
	C875.108887,564.379150 867.733154,562.016235 865.637634,554.461792 
	C864.163818,549.148499 862.434204,543.587219 863.123779,538.015320 
	C863.855957,532.098999 865.403687,526.247559 869.496582,521.497009 
	C877.972656,511.659119 886.170532,501.548584 895.557251,492.559753 
	C901.721985,486.656342 910.306213,484.767670 917.520142,480.534302 
	C930.375183,472.990509 944.485107,468.129181 958.050476,462.113892 
	C961.555847,460.559509 965.450317,459.338257 969.500000,459.500000 
"/>
<path fill="none" opacity="1.000000" stroke="#000000" stroke-linecap="round" stroke-linejoin="round" stroke-width="11.000000"
	d="
M1549.000000,92.500000 
	C1547.880615,92.396324 1547.281616,92.861588 1546.981567,93.995132 
	C1544.599731,102.991814 1538.166626,107.305450 1529.500000,109.000000 
"/>
<path fill="none" opacity="1.000000" stroke="#000000" stroke-linecap="round" stroke-linejoin="round" stroke-width="14.000000"
	d="
M1480.500000,183.500000 
	C1482.666626,187.333328 1484.721924,191.235046 1487.022949,194.985886 
	C1491.861328,202.872482 1487.713257,207.797928 1482.004883,211.008743 
	C1477.467529,213.560959 1472.780029,215.834030 1467.498657,215.906891 
	C1464.978516,215.941635 1462.999268,216.676804 1460.988281,217.981903 
	C1453.572266,222.794571 1445.164062,225.699417 1436.914551,228.220169 
	C1427.214355,231.184143 1421.770020,238.070587 1416.553955,245.537735 
	C1407.760986,258.125580 1403.663086,273.064606 1396.594849,286.549683 
	C1390.958252,297.303436 1385.370850,308.214874 1381.290283,319.603973 
	C1378.727173,326.757751 1374.360229,332.414093 1370.372803,338.415466 
	C1366.715210,343.920044 1366.123657,350.594635 1362.510498,356.007050 
	C1357.043701,364.196259 1352.738892,372.966400 1346.379395,380.807709 
	C1338.843262,390.099976 1331.062622,399.305695 1323.186890,408.223511 
	C1315.291016,417.164001 1306.068237,425.248901 1295.561523,431.601685 
	C1286.595459,437.022888 1276.955811,441.090637 1267.941772,446.401123 
	C1261.804321,450.016815 1254.672241,451.518372 1248.019409,454.051147 
	C1237.906372,457.901184 1227.604858,457.765717 1216.988647,457.222534 
	C1208.970337,456.812347 1200.789062,456.544098 1193.072754,455.108734 
	C1184.881958,453.585114 1176.604980,454.083160 1168.437134,452.285858 
	C1161.979004,450.864838 1155.325562,449.053253 1148.500244,449.503143 
	C1145.860229,449.677155 1143.036987,449.655060 1141.077148,447.913177 
	C1138.721436,445.819489 1136.148682,447.241302 1134.002319,447.260223 
	C1128.879272,447.305359 1127.213623,444.727814 1126.500000,440.500000 
"/>
<path fill="none" opacity="1.000000" stroke="#000000" stroke-linecap="round" stroke-linejoin="round" stroke-width="13.000000"
	d="
M1066.000000,116.000000 
	C1077.072388,122.680458 1089.464233,124.836792 1102.258667,126.180557 
	C1104.518799,142.958939 1110.595825,158.694229 1111.589844,175.494690 
	C1112.232422,186.356277 1112.866211,197.146469 1111.556641,208.006836 
	C1110.626831,215.718781 1109.559082,223.392792 1108.001221,231.000259 
	C1105.650513,242.479828 1099.552490,251.676208 1091.030884,259.533508 
	C1084.859375,265.224030 1077.313354,267.812042 1069.514893,270.051971 
	C1068.840454,270.245697 1068.266479,270.900482 1067.504883,270.490936 
	C1063.886597,268.545227 1059.848755,269.048431 1056.025513,268.358856 
	C1041.746826,265.783447 1029.762573,259.138855 1019.279358,248.722076 
	C1012.666199,242.150894 1007.137573,235.596222 1005.013062,226.496948 
	C1003.869873,221.600632 999.555298,218.266190 998.787476,213.031174 
	C998.495300,211.038910 995.134155,210.262207 992.992493,210.098434 
	C984.854004,209.476059 980.614624,204.185471 978.112305,197.458237 
	C975.406555,190.184265 975.920532,182.788971 981.056030,176.546097 
	C985.680176,170.924744 991.888367,171.978485 998.000000,173.500000 
"/>
<path fill="none" opacity="1.000000" stroke="#000000" stroke-linecap="round" stroke-linejoin="round" stroke-width="19.000000"
	d="
M1147.500000,1256.000000 
	C1144.670532,1264.459839 1147.599609,1272.778442 1148.751343,1280.964600 
	C1149.877686,1288.969116 1149.834473,1297.261475 1152.557251,1304.979858 
	C1155.500366,1313.322632 1159.994507,1320.277710 1168.433838,1324.628296 
	C1182.105469,1331.675659 1197.173218,1334.207275 1211.595581,1338.692749 
	C1219.489624,1341.147827 1227.859741,1343.411133 1236.501953,1343.047852 
	C1242.367310,1342.801270 1248.203491,1342.465332 1254.053223,1344.333252 
	C1257.093750,1345.304077 1260.689209,1344.617676 1264.500000,1343.645752 
	C1264.500000,1340.850830 1264.500000,1337.675415 1264.500000,1334.500000 
"/>
<path fill="none" opacity="1.000000" stroke="#000000" stroke-linecap="round" stroke-linejoin="round" stroke-width="11.000000"
	d="
M870.500000,628.000000 
	C870.500000,629.666687 870.520264,631.333618 870.496765,632.999939 
	C870.290894,647.594910 872.857117,661.819336 875.879150,676.025696 
	C876.650146,679.649963 876.196838,683.584778 879.028870,686.471680 
	C881.725403,689.220581 885.580383,689.835205 889.025818,690.917786 
	C904.074219,695.646057 918.901184,701.190247 934.508972,703.949402 
	C935.881775,704.192139 937.112488,704.658142 937.962341,705.536438 
	C942.666931,710.398926 948.902527,708.563599 954.498169,709.510742 
	C956.106140,709.782837 955.327087,708.606934 955.500000,708.000000 
"/>
<path fill="none" opacity="1.000000" stroke="#000000" stroke-linecap="round" stroke-linejoin="round" stroke-width="14.000000"
	d="
M1129.000000,447.500000 
	C1126.090820,453.015137 1125.450928,458.747375 1128.059326,464.472961 
	C1129.689941,468.051819 1129.977417,471.709991 1130.006958,475.499939 
	C1130.076904,484.436218 1129.979004,493.389008 1132.958618,502.014282 
	C1133.267334,502.907684 1133.009155,504.000092 1132.998657,505.000000 
	C1132.875488,516.735168 1133.239868,528.422974 1135.399048,540.018799 
	C1135.777832,542.052856 1134.948608,544.358765 1134.477539,546.495056 
	C1133.224976,552.176208 1133.290894,557.607910 1134.129150,563.552307 
	C1135.419800,572.703064 1136.634521,582.205383 1135.350708,591.479309 
	C1134.104858,600.480713 1134.819824,609.535034 1133.549194,618.506958 
	C1131.906616,630.107239 1132.249878,641.871155 1130.677734,653.523987 
	C1129.517456,662.124146 1127.829712,670.686523 1127.837646,679.500122 
	C1127.843994,686.670837 1124.702515,693.643738 1125.500000,701.000000 
	C1119.864746,708.301575 1124.197998,715.488831 1126.144287,722.459717 
	C1127.717529,728.094910 1129.534912,733.629944 1129.456909,739.499451 
	C1129.309204,750.619263 1131.040771,761.598816 1132.746460,772.461304 
	C1134.399658,782.989319 1135.398926,793.713013 1138.525024,803.992371 
	C1139.126953,805.971619 1139.436890,807.941284 1139.518311,809.999268 
	C1139.927124,820.348267 1143.097656,830.406921 1141.780273,841.034729 
	C1141.209473,845.639954 1144.422119,850.459045 1144.522339,855.499573 
	C1144.653442,862.093994 1149.021362,867.301208 1150.568481,873.482849 
	C1153.085327,883.538879 1155.568604,893.436462 1153.624756,904.022888 
	C1152.431519,910.520752 1154.490356,917.055969 1155.579834,923.486450 
	C1156.902222,931.292664 1157.513916,939.190186 1158.744629,946.961243 
	C1159.853271,953.963074 1160.892944,961.022522 1162.095215,968.026550 
	C1163.085571,973.796326 1163.144165,979.767395 1164.552856,985.487000 
	C1166.065552,991.629028 1168.216187,997.583069 1170.424683,1003.528015 
	C1173.281860,1011.219604 1172.127686,1019.535950 1173.426514,1027.511963 
	C1174.910645,1036.626953 1175.895386,1045.826294 1176.946411,1055.006104 
	C1177.151489,1056.796997 1176.671265,1058.666992 1176.499268,1060.499878 
	C1175.810303,1067.843994 1177.217285,1075.006226 1179.089722,1081.975830 
	C1182.444336,1094.461914 1182.627075,1107.339111 1184.457397,1120.006104 
	C1184.681274,1121.554688 1184.697632,1123.057251 1185.453613,1124.523926 
	C1186.169434,1125.912720 1187.154663,1127.626831 1186.892456,1128.979126 
	C1185.343384,1136.970825 1187.939575,1144.422607 1189.535645,1151.992432 
	C1190.584106,1156.964966 1192.698364,1161.693726 1192.036255,1167.004517 
	C1190.655029,1178.084229 1193.658203,1188.724731 1195.406616,1199.515137 
	C1196.584961,1206.788330 1196.841309,1214.081665 1195.197388,1221.543457 
	C1193.886108,1227.494629 1193.629639,1233.899902 1194.204102,1239.980713 
	C1194.744385,1245.700684 1191.897583,1248.989624 1188.575439,1252.569946 
	C1188.114258,1253.067017 1187.787476,1252.995850 1187.502930,1252.968994 
	C1176.956299,1251.978271 1166.549683,1255.036987 1155.996460,1254.038086 
	C1153.664795,1253.817261 1151.240845,1253.702148 1149.003906,1254.758301 
	C1147.928101,1255.266113 1147.096436,1255.308105 1145.957275,1254.565430 
	C1144.289429,1253.478271 1142.397949,1252.622681 1140.488403,1252.037720 
	C1133.361450,1249.854004 1131.079956,1246.391357 1129.870361,1239.021240 
	C1128.373291,1229.901489 1127.836548,1220.593872 1123.678101,1211.914673 
	C1121.075195,1206.482056 1122.521240,1199.973633 1121.654785,1193.977661 
	C1121.182983,1190.712646 1120.615356,1187.604614 1119.549194,1184.483154 
	C1116.954590,1176.885742 1117.532471,1168.829102 1116.496460,1161.000488 
	C1116.339722,1159.814941 1116.817871,1159.317871 1118.000000,1159.500000 
"/>
<path fill="none" opacity="1.000000" stroke="#000000" stroke-linecap="round" stroke-linejoin="round" stroke-width="11.000000"
	d="
M996.500000,1271.000000 
	C994.102600,1278.070679 995.588562,1285.349121 995.640564,1292.499023 
	C995.694031,1299.853516 996.911987,1307.189697 997.852112,1314.518921 
	C998.451660,1319.192871 999.194580,1323.290649 1002.313843,1327.150513 
	C1003.813477,1329.006104 1002.920837,1332.610107 1004.523132,1334.984375 
	C1008.169189,1340.387207 1013.117432,1344.557007 1018.545471,1347.926758 
	C1030.733887,1355.493530 1043.028687,1362.913452 1055.545898,1369.917847 
	C1064.689575,1375.034058 1074.414429,1379.179810 1084.541992,1381.839966 
	C1091.383301,1383.637085 1098.537598,1384.294067 1105.551758,1381.114258 
	C1108.752075,1379.663452 1109.744751,1377.718628 1110.065308,1374.506470 
	C1110.777588,1367.371216 1108.679565,1361.007202 1103.912231,1356.085083 
	C1091.481812,1343.250977 1079.277100,1329.854614 1062.444092,1322.630249 
	C1052.083252,1318.183350 1042.251587,1312.539673 1031.500000,1309.000000 
"/>
<path fill="none" opacity="1.000000" stroke="#000000" stroke-linecap="round" stroke-linejoin="round" stroke-width="11.000000"
	d="
M1103.000000,126.500000 
	C1110.603149,123.044373 1119.113892,121.582291 1125.570435,115.575668 
	C1128.113037,113.210213 1130.756470,110.986534 1132.463501,107.979317 
	C1136.016113,101.721275 1135.403076,95.596054 1129.933350,91.080811 
	C1119.633179,82.578316 1108.362061,75.873062 1094.501587,74.974930 
	C1089.441650,74.647049 1085.317749,71.905922 1080.958374,69.577896 
	C1069.297852,63.350880 1056.730957,60.564644 1043.507202,59.863617 
	C1035.772095,59.453556 1028.164307,60.171345 1020.496643,60.374355 
	C1017.789551,60.446026 1015.818359,61.806946 1013.512207,62.538567 
	C999.172974,67.087730 987.353149,75.169525 978.438782,87.455582 
	C976.232605,90.496208 973.555237,92.245773 968.922913,90.736588 
	C964.592346,89.325684 959.775391,91.463417 956.593994,94.595451 
	C946.066772,104.959373 937.130432,116.384979 936.010864,132.000778 
	C935.927673,133.161484 935.784973,134.381409 936.033386,135.492538 
	C938.464111,146.365189 937.419861,157.702393 940.119202,168.470123 
	C942.485718,177.910370 946.369019,186.897034 951.008179,195.495575 
	C956.413330,205.513901 964.311646,213.049225 974.526855,217.944000 
	C982.890991,221.951813 991.387024,222.841721 999.500000,217.000000 
"/>
<path fill="none" opacity="1.000000" stroke="#000000" stroke-linecap="round" stroke-linejoin="round" stroke-width="16.000000"
	d="
M1711.000000,977.500000 
	C1709.494995,983.500000 1709.688232,989.422058 1710.852539,995.528137 
	C1711.597778,999.435547 1711.300171,1003.609070 1709.539917,1007.518005 
	C1707.124146,1012.882812 1707.463745,1018.558411 1709.128784,1023.960327 
	C1710.043945,1026.929077 1709.904663,1029.602905 1709.526001,1032.503418 
	C1707.229736,1050.092773 1705.894409,1067.749512 1706.547241,1085.498291 
	C1706.733521,1090.564819 1706.532471,1095.656372 1705.334595,1100.458740 
	C1704.082764,1105.476929 1705.076660,1110.186401 1705.574463,1114.992310 
	C1705.855103,1117.701660 1706.393921,1120.313843 1705.512939,1123.004272 
	C1703.907349,1127.907471 1704.478882,1132.944092 1704.322510,1137.994507 
	C1703.929688,1150.667725 1704.249023,1163.335571 1703.965088,1175.999268 
	C1703.680908,1188.666504 1703.623413,1201.346680 1703.351685,1214.007568 
	C1703.109253,1225.307251 1700.945801,1236.335205 1700.715698,1247.504395 
	C1700.580200,1254.084961 1701.860596,1260.877686 1704.998047,1267.000977 
	C1705.677856,1268.327637 1706.333252,1269.666748 1707.000000,1271.000000 
"/>
<path fill="none" opacity="1.000000" stroke="#000000" stroke-linecap="round" stroke-linejoin="round" stroke-width="16.000000"
	d="
M1733.500000,1264.000000 
	C1734.839600,1256.559814 1734.581665,1248.923218 1735.708984,1241.531860 
	C1737.236572,1231.517212 1736.072876,1221.494873 1737.227905,1211.468628 
	C1738.315796,1202.025879 1737.745605,1192.399048 1739.921631,1182.981934 
	C1740.835815,1179.025879 1739.087036,1175.027832 1738.792847,1171.015137 
	C1738.502075,1167.051270 1737.987305,1163.183350 1739.547729,1159.520386 
	C1743.217529,1150.905029 1741.679321,1141.880737 1741.988647,1132.999634 
	C1742.063965,1130.835571 1741.510376,1128.527710 1742.079346,1126.522583 
	C1745.821533,1113.336914 1744.424316,1099.889038 1744.617920,1086.501709 
	C1744.668701,1082.990356 1746.533447,1079.540527 1746.925903,1075.991821 
	C1747.826416,1067.851074 1747.739990,1059.561279 1749.165527,1051.529419 
	C1750.616211,1043.354980 1748.384644,1034.912842 1751.090088,1027.030884 
	C1754.596191,1016.816162 1753.182251,1006.362427 1753.438721,995.998474 
	C1753.710938,985.005249 1753.374268,973.998108 1753.541016,963.000610 
	C1753.667480,954.664185 1754.559937,946.322998 1754.341919,938.004150 
	C1754.224731,933.531189 1754.712524,928.897522 1752.646851,924.432068 
	C1751.353027,921.635071 1749.528442,919.429260 1746.983154,919.157410 
	C1740.779785,918.494812 1734.914429,915.711609 1728.490967,916.417603 
	C1726.889893,916.593567 1725.633667,916.852173 1724.488159,917.988098 
	C1719.089355,923.341736 1712.481689,925.221680 1704.999146,925.036194 
	C1690.896240,924.686584 1677.241943,927.926147 1663.483398,930.407593 
	C1659.755371,931.079956 1655.877197,931.843079 1652.000000,931.000000 
"/>
<path fill="none" opacity="1.000000" stroke="#000000" stroke-linecap="round" stroke-linejoin="round" stroke-width="13.000000"
	d="
M1027.000000,510.500000 
	C1027.183716,513.196533 1025.915405,515.442383 1024.452637,517.465759 
	C1022.661926,519.942749 1023.227234,521.868042 1024.353638,524.561218 
	C1026.817383,530.451355 1028.907227,536.460144 1032.981079,541.515198 
	C1033.291016,541.899780 1033.476318,542.499207 1033.479004,543.000122 
	C1033.534546,553.304626 1039.055786,562.312988 1040.229736,572.473450 
	C1041.370605,582.349121 1041.558838,592.415588 1045.032227,602.078247 
	C1046.849854,607.134583 1046.898071,613.000977 1046.886597,618.499756 
	C1046.869629,626.638489 1048.210693,634.455444 1051.074585,641.971558 
	C1052.734375,646.327576 1052.707397,650.632080 1051.874512,654.975952 
	C1051.679565,655.992554 1051.543091,657.011169 1051.533691,658.000305 
	C1051.484009,663.242371 1053.813965,665.323730 1058.988525,666.078613 
	C1065.649048,667.050354 1071.983276,665.870605 1077.956909,663.395935 
	C1085.162354,660.410950 1088.548462,656.012024 1085.507812,646.497498 
	C1083.690430,640.810608 1081.980957,635.095093 1082.492554,628.999390 
	C1082.548218,628.337341 1082.700928,627.585999 1082.470337,627.011902 
	C1077.764404,615.290771 1078.395630,602.532227 1075.564941,590.368530 
	C1073.216797,580.279175 1069.104126,570.245667 1069.447388,559.498291 
	C1069.541260,556.562561 1067.849121,554.027527 1066.490112,551.505371 
	C1063.107056,545.227600 1060.796631,538.610413 1060.002197,531.499756 
	C1059.309570,525.300354 1056.870239,519.869324 1053.022095,514.982605 
	C1050.734619,512.077759 1048.666626,509.000000 1046.500000,506.000000 
"/>
<path fill="none" opacity="1.000000" stroke="#000000" stroke-linecap="round" stroke-linejoin="round" stroke-width="12.000000"
	d="
M1588.500000,980.500000 
	C1587.722412,986.660461 1590.362183,992.422424 1590.700684,998.488831 
	C1590.807007,1000.393860 1590.558472,1002.177307 1590.466797,1003.998352 
	C1589.702026,1019.179626 1587.169312,1034.236694 1587.424805,1049.501221 
	C1587.489502,1053.366211 1584.673218,1056.983032 1585.541016,1060.991089 
	C1587.296997,1069.102295 1585.853760,1077.367188 1586.977051,1085.503174 
	C1587.901611,1092.198730 1585.280640,1098.519775 1584.254028,1104.960815 
	C1583.277344,1111.088623 1583.129272,1117.118774 1584.228149,1122.957031 
	C1585.029053,1127.212524 1585.301025,1131.398926 1584.868164,1135.486084 
	C1583.998535,1143.697876 1586.006104,1151.527954 1587.004517,1159.499390 
	C1587.868286,1166.395020 1588.503662,1173.151367 1586.145996,1180.049927 
	C1584.584106,1184.619995 1585.596680,1189.642090 1585.920532,1194.505249 
	C1586.529785,1203.653564 1586.214111,1212.878906 1587.131226,1221.986816 
	C1587.993286,1230.548462 1586.586548,1238.986084 1586.860962,1247.504517 
	C1587.073486,1254.100098 1588.937988,1260.423706 1589.039917,1266.999390 
	C1589.179932,1276.028809 1591.791626,1285.313843 1585.547852,1293.536377 
	C1584.534546,1294.870972 1585.110596,1296.482910 1585.954956,1298.024658 
	C1587.905029,1301.585205 1589.721436,1305.244263 1589.500000,1309.500000 
"/>
<path fill="none" opacity="1.000000" stroke="#000000" stroke-linecap="round" stroke-linejoin="round" stroke-width="14.000000"
	d="
M938.500000,773.500000 
	C938.058228,788.430542 939.785156,803.285095 941.773926,817.962891 
	C944.012390,834.483459 946.517517,851.007385 948.756470,867.533020 
	C950.029541,876.929993 949.951050,886.636414 951.675720,895.967529 
	C954.344543,910.406494 953.211548,925.223938 957.219849,939.578247 
	C959.156616,946.513733 957.529175,954.303589 955.872131,961.470459 
	C954.514648,967.341431 954.581055,972.712280 957.494568,978.002991 
	C959.688843,981.987793 961.884460,985.973389 963.987244,990.006653 
	C966.712891,995.234497 967.377991,1000.540588 964.512817,1006.006714 
	C960.111023,1014.404663 960.537537,1022.770142 965.011902,1030.993530 
	C967.991455,1036.469849 968.015320,1042.216553 966.452576,1047.987183 
	C964.857178,1053.878418 963.893127,1059.624146 966.420837,1065.533813 
	C966.963196,1066.801880 966.994995,1068.736694 966.411377,1069.957642 
	C964.277283,1074.421997 966.385681,1078.278809 968.077026,1081.964600 
	C973.532104,1093.852905 974.323181,1106.218140 973.053528,1119.005371 
	C971.792297,1131.707642 970.369934,1144.354858 974.362305,1157.043335 
	C977.656982,1167.514893 978.993225,1178.422729 977.550537,1189.506592 
	C977.251648,1191.802856 977.331482,1194.153198 977.947449,1196.513672 
	C979.356873,1201.915161 979.806091,1207.297729 979.248840,1213.024170 
	C978.740967,1218.243286 980.291992,1223.672241 981.008972,1228.998779 
	C982.310669,1238.669678 983.660767,1248.334229 985.002380,1257.999634 
	C985.740356,1263.316895 993.590393,1269.829346 998.998108,1270.047119 
	C1006.838806,1270.363037 1014.660522,1271.194580 1022.501831,1271.442017 
	C1029.520996,1271.663574 1034.711670,1267.388428 1040.019409,1263.526611 
	C1041.913452,1262.148438 1041.000244,1260.105835 1041.362549,1258.469604 
	C1042.753296,1252.190186 1043.353271,1245.754395 1044.967529,1239.491577 
	C1046.992310,1231.636475 1045.263550,1223.346680 1047.509766,1215.502808 
	C1050.458740,1205.204102 1049.524292,1194.356201 1052.032104,1184.007812 
	C1052.650513,1181.455688 1053.270874,1178.769165 1054.570557,1176.541138 
	C1059.386230,1168.286011 1057.125000,1159.165527 1057.755615,1150.482300 
	C1058.133301,1145.281128 1060.641968,1140.671387 1060.510986,1135.499756 
	C1060.329224,1128.327148 1063.022461,1121.310059 1061.154175,1113.960815 
	C1060.337158,1110.747070 1061.095581,1107.323608 1062.817139,1103.907837 
	C1065.421875,1098.739746 1065.953735,1092.947388 1065.100342,1086.985596 
	C1064.298706,1081.386108 1064.257690,1075.669678 1064.032959,1069.998657 
	C1063.925537,1067.287354 1064.175293,1064.517822 1062.976685,1062.011230 
	C1059.552246,1054.849976 1061.386108,1047.330811 1061.605713,1040.003174 
	C1061.936523,1028.969727 1059.986816,1018.557495 1055.553223,1008.476624 
	C1053.364502,1003.500061 1053.952881,998.283386 1054.920776,992.985535 
	C1056.652466,983.508484 1054.195801,973.969055 1054.670776,964.508545 
	C1055.103516,955.881714 1053.485962,947.985107 1050.688721,939.934448 
	C1049.136475,935.466736 1049.015137,930.324219 1049.105225,925.501953 
	C1049.271118,916.628967 1047.246216,907.874329 1048.167480,898.500000 
	C1050.493774,898.500000 1052.996826,898.500000 1055.500000,898.500000 
"/>
<path fill="none" opacity="1.000000" stroke="#000000" stroke-linecap="round" stroke-linejoin="round" stroke-width="12.000000"
	d="
M980.500000,611.000000 
	C986.090515,620.398254 987.138733,631.081421 988.948975,641.508850 
	C990.746887,651.864990 993.671814,661.904602 996.354858,672.038452 
	C998.866638,681.525513 1000.167053,691.333252 1001.996155,701.000732 
	C1002.026611,701.161682 1002.044861,701.348816 1001.993469,701.497742 
	C1000.281006,706.460144 995.129333,708.816833 992.936707,713.470215 
	C992.244751,714.938782 990.403931,714.407410 989.000732,714.509888 
	C981.614807,715.049133 974.671448,712.466064 967.503296,711.476013 
	C963.651428,710.944031 959.833313,710.166687 956.000000,709.500000 
"/>
<path fill="none" opacity="1.000000" stroke="#000000" stroke-linecap="round" stroke-linejoin="round" stroke-width="12.000000"
	d="
M1439.000000,841.500000 
	C1435.727295,842.026184 1433.444580,844.503784 1432.661987,847.049805 
	C1429.947144,855.881592 1423.965698,862.737061 1419.575562,870.542480 
	C1413.460449,881.414490 1405.906006,891.338928 1399.543945,902.026123 
	C1395.982300,908.008911 1390.840210,912.056213 1385.020020,915.533508 
	C1382.566650,916.999268 1380.333252,918.833252 1377.999878,920.499939 
"/>
<path fill="none" opacity="1.000000" stroke="#000000" stroke-linecap="round" stroke-linejoin="round" stroke-width="12.000000"
	d="
M1435.000000,1346.000000 
	C1435.001831,1351.255493 1438.234863,1355.078613 1441.052124,1358.962158 
	C1445.300659,1364.818237 1445.341431,1370.570923 1441.489014,1376.492798 
	C1439.383545,1379.729492 1436.724365,1381.727173 1432.515015,1382.149292 
	C1428.317383,1382.570312 1424.115601,1382.738525 1420.010986,1382.375244 
	C1414.126587,1381.854248 1405.203491,1370.523071 1405.533081,1364.501831 
	C1405.920288,1357.424805 1407.423218,1355.711060 1414.501099,1352.502319 
	C1417.977417,1350.926514 1421.947632,1350.253418 1424.500000,1347.000000 
"/>
<path fill="none" opacity="1.000000" stroke="#000000" stroke-linecap="round" stroke-linejoin="round" stroke-width="14.000000"
	d="
M1722.500000,914.000000 
	C1717.178833,907.975586 1709.975464,905.528809 1702.488281,904.059448 
	C1682.535889,900.143555 1662.805176,895.435852 1643.480103,889.060425 
	C1641.126343,888.283813 1638.500000,888.333313 1636.000000,888.000000 
"/>
<path fill="none" opacity="1.000000" stroke="#000000" stroke-linecap="round" stroke-linejoin="round" stroke-width="14.000000"
	d="
M1428.000000,1020.000000 
	C1428.666626,1028.166626 1429.383301,1036.329712 1429.989136,1044.500854 
	C1431.103271,1059.529419 1429.340820,1074.521240 1429.331299,1089.500244 
	C1429.324463,1100.099854 1428.177124,1110.918579 1431.680786,1121.604614 
	C1433.466675,1127.051758 1432.388794,1133.594849 1433.604004,1139.478516 
	C1434.736938,1144.963501 1433.775024,1150.628296 1435.500000,1156.000000 
"/>
<path fill="none" opacity="1.000000" stroke="#000000" stroke-linecap="round" stroke-linejoin="round" stroke-width="12.000000"
	d="
M1394.000000,985.000000 
	C1393.737915,989.938171 1396.265503,993.975830 1399.114624,997.404724 
	C1403.630615,1002.839478 1403.181885,1009.092468 1402.297241,1014.969482 
	C1401.050781,1023.249329 1401.270630,1031.085571 1403.944824,1039.018677 
	C1406.583618,1046.847534 1406.873047,1054.822266 1405.156494,1063.032715 
	C1404.395508,1066.672119 1405.134277,1070.688232 1405.546265,1074.494995 
	C1406.179565,1080.347412 1406.213501,1086.155640 1405.544678,1092.005127 
	C1405.256958,1094.521729 1405.688843,1097.029541 1406.465698,1099.510742 
	C1409.299805,1108.562622 1409.295532,1117.733154 1407.559570,1127.011108 
	C1407.011597,1129.939819 1407.166748,1133.000000 1407.000000,1136.000000 
"/>
<path fill="none" opacity="1.000000" stroke="#000000" stroke-linecap="round" stroke-linejoin="round" stroke-width="23.000000"
	d="
M1739.500000,1366.500000 
	C1750.717529,1366.553955 1759.254395,1360.417236 1767.447998,1353.934326 
	C1776.190918,1347.016846 1779.156616,1336.378784 1780.996582,1326.407104 
	C1782.249146,1319.619751 1782.015259,1311.729980 1780.000000,1304.500000 
"/>
<path fill="none" opacity="1.000000" stroke="#000000" stroke-linecap="round" stroke-linejoin="round" stroke-width="18.000000"
	d="
M1695.000000,1285.000000 
	C1684.955200,1295.978027 1682.308716,1309.202515 1683.548828,1323.495728 
	C1684.014771,1328.865234 1687.393555,1333.216064 1689.347046,1338.061646 
	C1691.072510,1342.341553 1693.458130,1345.246338 1697.427002,1347.622070 
	C1702.692627,1350.773926 1706.178711,1356.163574 1711.421143,1359.619629 
	C1716.876831,1363.216309 1722.463745,1365.449829 1728.999268,1365.548584 
	C1731.837036,1365.591553 1734.666626,1366.166626 1737.500000,1366.499878 
"/>
<path fill="none" opacity="1.000000" stroke="#000000" stroke-linecap="round" stroke-linejoin="round" stroke-width="11.000000"
	d="
M1545.750000,985.500000 
	C1546.476685,996.854858 1548.755005,1008.265747 1544.968628,1019.489441 
	C1543.265503,1024.538086 1545.040161,1029.522949 1546.304932,1033.912109 
	C1548.741699,1042.368042 1547.755127,1050.666626 1547.362915,1058.993530 
	C1547.061646,1065.389771 1546.271362,1071.842163 1548.181519,1077.943115 
	C1549.271240,1081.423950 1547.321777,1084.160645 1547.782593,1087.529785 
	C1549.843384,1102.597778 1551.046875,1117.782715 1551.437622,1133.001587 
	C1551.527222,1136.490723 1551.254639,1140.104126 1550.420776,1143.480469 
	C1547.953125,1153.470947 1550.688721,1163.173096 1551.417480,1173.006104 
	C1551.934082,1179.976440 1554.414062,1186.938599 1552.073608,1194.012573 
	C1550.666382,1193.835571 1549.333252,1193.667725 1548.000000,1193.500000 
"/>
<path fill="none" opacity="1.000000" stroke="#000000" stroke-linecap="round" stroke-linejoin="round" stroke-width="15.000000"
	d="
M1035.000000,508.000000 
	C1031.067383,509.783783 1027.226440,509.143982 1022.975647,508.813965 
	C1011.877808,507.952423 1001.145996,504.625336 990.000000,504.502197 
	C986.308105,504.461395 982.868469,503.180420 979.533325,501.912323 
	C975.428833,500.351624 971.310913,499.942383 966.999817,499.969635 
	C950.983887,500.070953 934.972168,499.826721 919.002197,498.474243 
	C915.037537,498.138519 912.793762,499.534790 911.405945,503.466797 
	C908.957458,510.404083 905.003784,516.530090 900.033569,522.030334 
	C895.824036,526.688660 893.989929,532.179077 895.500000,538.500000 
"/>
<path fill="none" opacity="1.000000" stroke="#000000" stroke-linecap="round" stroke-linejoin="round" stroke-width="13.000000"
	d="
M1121.500000,709.000000 
	C1114.062134,708.456726 1107.552368,712.215027 1100.510132,713.553223 
	C1085.643555,716.378357 1070.895386,719.887512 1055.964111,722.275940 
	C1051.169800,723.042847 1046.611084,724.040527 1041.932861,725.237671 
	C1036.174683,726.711243 1029.921631,725.516235 1024.015503,724.416809 
	C1017.520630,723.208008 1011.106689,721.588745 1004.500977,720.988953 
	C999.715515,720.554443 996.221741,717.748718 993.000000,714.500000 
"/>
<path fill="none" opacity="1.000000" stroke="#000000" stroke-linecap="round" stroke-linejoin="round" stroke-width="13.000000"
	d="
M1733.000000,1332.500000 
	C1723.199097,1330.645752 1719.300781,1326.225220 1719.516602,1317.000366 
	C1719.670166,1310.442139 1725.588013,1303.108154 1733.484009,1301.425171 
	C1739.293457,1300.187012 1746.664673,1307.602173 1748.497681,1312.500854 
	C1751.175781,1319.657593 1745.956543,1329.587891 1738.496826,1331.487427 
	C1736.852051,1331.906372 1735.166626,1332.166626 1733.500000,1332.500000 
"/>
<path fill="none" opacity="1.000000" stroke="#000000" stroke-linecap="round" stroke-linejoin="round" stroke-width="12.000000"
	d="
M1031.000000,136.500000 
	C1023.500000,136.500000 1015.997986,136.406113 1008.501465,136.568619 
	C1006.715271,136.607346 1005.550049,137.574234 1005.400757,139.993881 
	C1004.829590,149.250854 1001.555054,158.156540 1001.558167,167.499985 
	C1001.558716,169.174316 1001.057373,170.585312 999.947876,171.431702 
	C998.250549,172.726639 998.536743,174.345566 998.500000,176.000000 
"/>
<path fill="none" opacity="1.000000" stroke="#000000" stroke-linecap="round" stroke-linejoin="round" stroke-width="16.000000"
	d="
M1515.000000,1351.500000 
	C1515.344604,1353.481567 1514.673218,1354.529419 1512.499878,1354.517700 
	C1507.628418,1354.491455 1502.694336,1354.421631 1498.022949,1353.164917 
	C1488.641235,1350.640625 1478.887451,1350.236328 1469.529663,1347.882080 
	C1463.067749,1346.256592 1456.408569,1346.294434 1449.968140,1344.622559 
	C1447.157593,1343.892944 1443.906494,1344.027344 1441.019531,1344.598755 
	C1435.054810,1345.779297 1430.217896,1344.724976 1425.402954,1340.613770 
	C1417.621704,1333.969604 1407.952271,1330.297974 1399.038818,1325.428833 
	C1391.695557,1321.417480 1384.073242,1317.480225 1380.040283,1309.479736 
	C1379.101318,1307.616943 1378.106934,1305.498901 1378.110840,1303.500244 
	C1378.120239,1298.606567 1376.547485,1294.277466 1374.516724,1289.992065 
	C1373.908936,1288.709839 1372.896606,1287.231201 1373.101929,1286.017212 
	C1374.129517,1279.940308 1372.014404,1274.027710 1372.448608,1267.996338 
	C1372.602905,1265.852783 1372.612915,1263.511841 1371.924316,1261.526245 
	C1368.531616,1251.744629 1368.682739,1241.886719 1371.061890,1232.014893 
	C1372.087524,1227.759155 1371.078857,1223.660889 1370.960693,1219.501099 
	C1370.661865,1208.981934 1368.858521,1198.562256 1368.896484,1187.999634 
	C1368.907227,1185.002075 1367.734131,1181.983032 1366.986694,1179.003296 
	C1365.001343,1171.088867 1365.389771,1163.021729 1365.651245,1155.004883 
	C1365.701294,1153.470459 1365.981689,1151.978760 1365.489136,1150.503662 
	C1363.421265,1144.311890 1363.668823,1137.921387 1363.324219,1131.509399 
	C1362.897705,1123.571655 1361.540405,1115.624390 1358.976318,1108.007935 
	C1357.311401,1103.062622 1356.877930,1098.299316 1357.748779,1092.958984 
	C1358.594971,1087.769897 1358.546753,1082.285278 1356.149902,1076.932861 
	C1353.297241,1070.562500 1352.088013,1063.792847 1352.803589,1056.480835 
	C1353.599121,1048.348755 1354.114258,1040.044434 1351.076660,1031.971191 
	C1348.246094,1024.447388 1349.536621,1016.314270 1348.661255,1008.481995 
	C1348.044922,1002.968018 1347.834961,997.469360 1346.632568,991.971008 
	C1345.169922,985.282898 1345.305298,978.316406 1344.669800,971.484192 
	C1343.651855,960.537903 1343.819824,949.490723 1343.164062,938.490234 
	C1342.854614,933.301086 1344.738525,928.197449 1349.000000,924.500000 
"/>
<path fill="none" opacity="1.000000" stroke="#000000" stroke-linecap="round" stroke-linejoin="round" stroke-width="10.000000"
	d="
M1576.500000,866.000000 
	C1578.306885,872.334717 1575.786255,876.688660 1571.112671,881.118835 
	C1559.367310,892.252197 1546.060059,901.630920 1535.023804,913.522034 
	C1532.658813,916.070129 1529.508667,916.259155 1526.500000,917.000000 
"/>
<path fill="none" opacity="1.000000" stroke="#000000" stroke-linecap="round" stroke-linejoin="round" stroke-width="11.000000"
	d="
M1083.000000,213.500000 
	C1079.684082,211.233673 1076.562134,210.262756 1072.393066,212.278824 
	C1070.161987,213.357712 1066.786499,212.422791 1064.015381,211.915955 
	C1061.937500,211.535934 1060.014038,211.231461 1057.997437,211.993362 
	C1050.468140,214.838196 1049.404053,215.042007 1052.570435,223.473541 
	C1055.563477,231.443283 1061.762573,235.540817 1069.500000,235.500000 
	C1075.382812,235.468964 1080.185425,232.240295 1081.939209,226.481476 
	C1083.812744,220.329834 1083.962036,213.851959 1084.750000,207.500000 
"/>
<path fill="none" opacity="1.000000" stroke="#000000" stroke-linecap="round" stroke-linejoin="round" stroke-width="17.000000"
	d="
M1188.000000,1253.500000 
	C1190.013428,1258.476318 1189.971191,1263.825317 1190.373535,1269.009766 
	C1190.858276,1275.254272 1192.427979,1281.292725 1193.052002,1287.494751 
	C1193.485596,1291.804321 1197.690552,1292.340698 1200.533936,1292.781128 
	C1205.024048,1293.476685 1209.553223,1294.097900 1213.986816,1295.060669 
	C1221.036133,1296.591431 1228.036743,1295.669922 1234.988159,1294.893555 
	C1240.309082,1294.299072 1245.463013,1295.296997 1250.466675,1296.187134 
	C1262.260864,1298.285400 1274.235474,1298.893066 1285.990601,1301.051025 
	C1295.236328,1302.748169 1304.084229,1305.487061 1311.025635,1312.474487 
	C1316.829590,1318.316772 1318.955444,1325.394409 1316.514038,1331.505615 
	C1313.251099,1339.673706 1307.181763,1342.897339 1298.517212,1343.688232 
	C1288.277466,1344.622803 1278.171143,1345.002930 1267.993652,1343.544189 
	C1266.873901,1343.383789 1265.666626,1343.833252 1264.500000,1344.000000 
"/>
<path fill="none" opacity="1.000000" stroke="#000000" stroke-linecap="round" stroke-linejoin="round" stroke-width="8.000000"
	d="
M1460.500000,938.500000 
	C1459.768677,932.949402 1462.211792,928.088867 1464.624512,923.566406 
	C1469.368286,914.674133 1474.734741,906.105713 1480.040039,897.524780 
	C1482.853394,892.974609 1482.156860,890.425720 1476.995239,889.017639 
	C1462.656616,885.106079 1449.442261,878.695557 1436.393311,871.698853 
	C1432.927490,869.840515 1431.996826,866.301086 1429.000000,864.500000 
"/>
<path fill="none" opacity="1.000000" stroke="#000000" stroke-linecap="round" stroke-linejoin="round" stroke-width="12.000000"
	d="
M1005.000000,594.500000 
	C1010.721924,606.345276 1013.829163,618.641663 1013.744873,632.001526 
	C1013.699707,639.159546 1015.864258,646.406494 1017.576172,653.481567 
	C1019.736084,662.408142 1021.201538,671.448975 1022.408752,680.512146 
	C1023.653809,689.859436 1020.558594,697.652344 1011.969971,702.446167 
	C1009.052063,704.074890 1005.714111,703.734375 1002.500000,703.000000 
"/>
<path fill="none" opacity="1.000000" stroke="#000000" stroke-linecap="round" stroke-linejoin="round" stroke-width="15.000000"
	d="
M1583.500000,856.000000 
	C1581.963745,852.294250 1578.535522,850.677002 1575.551636,848.431396 
	C1567.401489,842.297546 1559.525391,835.800903 1551.490479,829.512085 
	C1546.621216,825.700989 1544.008057,825.071350 1539.603882,829.113159 
	C1526.801514,840.861755 1511.091675,848.911255 1498.998413,861.498413 
	C1497.027466,863.549988 1494.762085,865.350037 1493.500000,868.000000 
"/>
<path fill="none" opacity="1.000000" stroke="#000000" stroke-linecap="round" stroke-linejoin="round" stroke-width="13.000000"
	d="
M1671.000000,978.500000 
	C1671.589233,988.167297 1670.433472,997.683777 1667.906250,1006.974487 
	C1666.844971,1010.875671 1668.299072,1014.347351 1668.574585,1017.994385 
	C1669.562744,1031.073242 1668.512573,1044.034180 1667.059814,1057.006714 
	C1666.803955,1059.292725 1667.488403,1061.667480 1667.476196,1063.999878 
	C1667.347900,1088.500122 1667.180298,1113.000122 1666.980469,1137.499878 
	C1666.958740,1140.167603 1666.795410,1142.849487 1666.463867,1145.495483 
	C1666.131592,1148.145752 1667.725098,1148.096558 1669.500000,1148.000000 
"/>
<path fill="none" opacity="1.000000" stroke="#000000" stroke-linecap="round" stroke-linejoin="round" stroke-width="12.000000"
	d="
M943.000000,709.500000 
	C940.918762,713.417114 940.612915,717.618347 940.407288,721.995667 
	C939.921509,732.335571 938.376587,742.618896 938.515137,752.999817 
	C938.599670,759.334229 938.833313,765.666687 939.000000,772.000000 
"/>
<path fill="none" opacity="1.000000" stroke="#000000" stroke-linecap="round" stroke-linejoin="round" stroke-width="12.000000"
	d="
M1413.000000,1211.500000 
	C1411.030884,1212.424438 1412.168823,1214.167969 1412.052246,1215.504517 
	C1411.775024,1218.680054 1412.362427,1221.896973 1411.032349,1225.013794 
	C1408.994751,1229.788452 1410.874878,1234.470093 1412.088745,1238.976074 
	C1414.271240,1247.078003 1413.190430,1255.347290 1413.804443,1263.514648 
	C1414.010620,1266.258789 1413.864624,1268.867432 1414.932983,1271.526978 
	C1416.001465,1274.186890 1416.317871,1277.090088 1416.000000,1280.000000 
"/>
<path fill="none" opacity="1.000000" stroke="#000000" stroke-linecap="round" stroke-linejoin="round" stroke-width="17.000000"
	d="
M1438.500000,837.500000 
	C1438.701416,838.866333 1437.932495,840.388916 1439.487427,841.517334 
	C1448.539429,848.086670 1457.537476,854.735657 1468.000854,858.997803 
	C1471.809692,860.549316 1475.636963,862.021790 1479.031494,864.455994 
	C1480.337891,865.392761 1481.994751,866.393433 1483.500854,866.407471 
	C1492.129028,866.488464 1497.358643,872.341064 1502.987793,877.513245 
	C1508.718018,882.778259 1515.173950,887.368286 1519.448120,894.033264 
	C1521.461182,897.172668 1522.651001,900.666687 1519.256470,904.076538 
	C1522.436523,907.531738 1522.183228,912.684387 1525.529541,915.969849 
	C1526.575195,916.996460 1525.721558,917.736633 1525.467163,918.488892 
	C1523.433960,924.500366 1523.962402,930.983887 1521.657104,937.157166 
	C1512.852661,939.736328 1503.714600,942.558472 1494.000000,940.000000 
"/>
<path fill="none" opacity="1.000000" stroke="#000000" stroke-linecap="round" stroke-linejoin="round" stroke-width="13.000000"
	d="
M1554.500000,1219.000000 
	C1553.537231,1220.360107 1553.131104,1221.984741 1553.550049,1223.486084 
	C1555.128540,1229.144165 1553.388672,1234.580688 1552.386108,1239.978882 
	C1551.520508,1244.639404 1552.521973,1249.061523 1553.099976,1253.486938 
	C1554.841797,1266.825684 1554.505981,1279.982910 1550.973755,1292.992920 
	C1550.386353,1295.156738 1549.833008,1297.423950 1547.996094,1298.995483 
	C1546.747314,1300.063965 1546.305054,1301.406006 1546.500000,1303.000000 
"/>
<path fill="none" opacity="1.000000" stroke="#000000" stroke-linecap="round" stroke-linejoin="round" stroke-width="9.000000"
	d="
M1010.000000,241.000000 
	C1005.128357,246.778259 1004.179382,253.939789 1003.013550,261.002228 
	C1001.395630,270.803162 999.845886,280.584869 989.015991,285.038910 
	C987.896851,285.499207 987.000000,286.500000 986.000000,287.250000 
"/>
<path fill="none" opacity="1.000000" stroke="#000000" stroke-linecap="round" stroke-linejoin="round" stroke-width="13.000000"
	d="
M1623.500000,1110.000000 
	C1626.962524,1112.269653 1624.994141,1116.035156 1625.917969,1119.025391 
	C1628.077271,1126.014771 1626.290161,1133.381592 1627.481689,1140.503052 
	C1627.617310,1141.313721 1627.828369,1142.376953 1627.449829,1142.967896 
	C1623.006104,1149.904053 1625.615112,1157.341797 1626.230957,1164.480103 
	C1626.463501,1167.176392 1626.457031,1169.831909 1626.481567,1172.500122 
	C1626.681274,1194.333252 1626.607666,1216.171875 1627.111816,1237.997437 
	C1627.312134,1246.666138 1627.583862,1255.335815 1627.449707,1263.999268 
	C1627.258057,1276.371704 1625.406250,1288.787720 1628.964722,1301.010254 
	C1629.233154,1301.932129 1629.000000,1303.000000 1629.000000,1304.000000 
"/>
<path fill="none" opacity="1.000000" stroke="#000000" stroke-linecap="round" stroke-linejoin="round" stroke-width="10.000000"
	d="
M1470.500000,101.000000 
	C1475.408691,97.512032 1478.344116,92.443542 1481.537964,87.524666 
	C1486.535156,79.828568 1492.785400,73.061569 1498.152832,65.610115 
	C1502.389404,59.728756 1507.452759,59.414108 1514.465088,63.559105 
	C1522.780396,68.474358 1530.760864,73.953033 1539.026367,78.956345 
	C1544.231934,82.107414 1547.094727,86.471184 1547.500000,92.500000 
"/>
<path fill="none" opacity="1.000000" stroke="#000000" stroke-linecap="round" stroke-linejoin="round" stroke-width="10.000000"
	d="
M1463.500000,216.000000 
	C1462.266602,210.340652 1457.815796,207.650223 1453.603638,204.367004 
	C1448.211548,200.163879 1441.114502,198.791580 1436.501465,193.498703 
	C1435.491943,192.340332 1433.945801,191.312668 1433.593506,189.975342 
	C1431.812256,183.214615 1426.345459,183.035309 1421.000000,182.500000 
"/>
<path fill="none" opacity="1.000000" stroke="#000000" stroke-linecap="round" stroke-linejoin="round" stroke-width="8.000000"
	d="
M1584.000000,886.500000 
	C1593.500000,898.000000 1603.075317,909.439087 1612.454590,921.036743 
	C1615.315430,924.574402 1616.466187,928.876160 1616.000000,933.500000 
"/>
<path fill="none" opacity="1.000000" stroke="#000000" stroke-linecap="round" stroke-linejoin="round" stroke-width="10.000000"
	d="
M1624.750000,979.500000 
	C1627.689575,984.876892 1627.919434,990.573853 1627.046997,996.506897 
	C1626.437256,1000.653809 1625.386841,1004.732849 1625.464722,1009.000671 
	C1625.735352,1023.835754 1625.189453,1038.673096 1626.340576,1053.512329 
	C1626.720703,1058.413940 1624.690796,1063.416138 1625.490845,1068.501465 
	C1626.380981,1074.159302 1628.542603,1079.773804 1627.871094,1085.484863 
	C1626.910645,1093.653809 1629.219360,1102.227539 1625.000000,1110.000000 
"/>
<path fill="none" opacity="1.000000" stroke="#000000" stroke-linecap="round" stroke-linejoin="round" stroke-width="13.000000"
	d="
M1502.000000,144.000000 
	C1508.131470,148.071640 1511.769653,154.542618 1516.866821,159.633331 
	C1520.707642,163.469284 1518.156860,174.748871 1513.492676,177.989487 
	C1511.336914,179.487320 1509.187744,181.042252 1506.500000,181.500000 
"/>
<path fill="none" opacity="1.000000" stroke="#000000" stroke-linecap="round" stroke-linejoin="round" stroke-width="13.000000"
	d="
M1468.000000,983.500000 
	C1468.004761,985.717224 1467.945679,987.878784 1468.950928,990.023010 
	C1470.427246,993.171753 1470.668457,996.818604 1469.864258,999.965332 
	C1467.645874,1008.644714 1468.793091,1017.311401 1468.994995,1026.000122 
	C1469.208130,1035.171509 1468.164795,1044.387207 1469.987549,1053.502441 
	C1470.083740,1053.983276 1469.821411,1054.593506 1470.026733,1054.985962 
	C1472.916626,1060.506714 1472.631592,1065.903442 1470.079956,1071.536255 
	C1468.550781,1074.911377 1469.498779,1078.383423 1471.496216,1081.502441 
	C1474.913574,1086.838257 1474.541016,1092.721436 1473.368164,1098.473145 
	C1472.875732,1100.887939 1472.498413,1103.064697 1472.957153,1105.508057 
	C1473.953735,1110.815308 1473.197266,1116.158936 1473.080444,1121.501709 
	C1472.896973,1129.891357 1473.691895,1138.374878 1470.916870,1146.471558 
	C1469.739868,1149.905884 1471.192017,1153.026978 1471.772583,1155.945801 
	C1472.883057,1161.528320 1472.450073,1166.964355 1472.631592,1172.495728 
	C1473.074829,1186.000488 1473.017822,1199.499756 1472.970337,1212.999878 
	C1472.895264,1234.286499 1475.761230,1255.351074 1477.546387,1276.496094 
	C1477.969849,1281.513184 1478.078003,1286.591553 1479.448364,1291.514404 
	C1479.736328,1292.548950 1479.550659,1293.566040 1480.453369,1294.543091 
	C1482.689819,1296.964111 1482.510986,1299.988281 1482.000000,1303.000000 
"/>
<path fill="none" opacity="1.000000" stroke="#000000" stroke-linecap="round" stroke-linejoin="round" stroke-width="13.000000"
	d="
M1056.000000,846.500000 
	C1061.999634,850.701233 1065.768799,856.218994 1067.614258,863.470947 
	C1069.977417,872.757263 1073.296021,881.795959 1075.954712,891.013062 
	C1077.734741,897.184448 1077.505005,903.695496 1078.553223,909.991150 
	C1079.966919,918.480591 1078.356445,927.437683 1082.481812,935.509277 
	C1082.786499,936.105408 1082.634277,936.998962 1083.030273,937.474792 
	C1087.828979,943.241699 1087.409546,950.077637 1087.604614,956.997070 
	C1087.957886,969.529663 1087.862427,982.115417 1090.351807,994.529724 
	C1090.698242,996.257446 1092.010254,999.127563 1089.000000,1000.500000 
"/>
<path fill="none" opacity="1.000000" stroke="#000000" stroke-linecap="round" stroke-linejoin="round" stroke-width="12.000000"
	d="
M866.000000,548.000000 
	C875.323853,546.195374 884.050476,542.157166 893.103577,539.919067 
	C903.151733,537.434937 913.599915,531.923096 924.513062,537.474304 
	C924.910278,537.676392 925.500977,537.520691 925.999878,537.496948 
	C938.025330,536.925354 950.017151,539.739197 961.984985,538.369019 
	C972.145264,537.205811 982.338562,536.890564 992.497253,535.969543 
	C996.538879,535.603149 1000.974854,537.784851 1001.913879,541.521606 
	C1002.752197,544.857300 1004.047668,547.964294 1005.544434,550.977905 
	C1008.143921,556.211609 1008.039062,562.028992 1009.406006,567.523376 
	C1010.543335,572.094666 1007.779053,575.667175 1005.000000,579.000000 
"/>
<path fill="none" opacity="1.000000" stroke="#000000" stroke-linecap="round" stroke-linejoin="round" stroke-width="9.000000"
	d="
M1472.000000,162.000000 
	C1465.322021,162.728516 1458.935791,164.664352 1452.475342,166.408539 
	C1445.472168,168.299225 1440.796875,172.736633 1437.004883,178.503204 
	C1435.563110,180.695862 1434.060059,182.827866 1432.000000,184.500000 
"/>
<path fill="none" opacity="1.000000" stroke="#000000" stroke-linecap="round" stroke-linejoin="round" stroke-width="10.000000"
	d="
M1519.000000,117.000000 
	C1523.090088,125.289307 1525.538574,134.151947 1527.977295,143.006256 
	C1529.904419,150.002945 1528.606934,152.995789 1522.476929,155.952286 
	C1521.337402,156.501892 1520.339966,157.093369 1519.500000,158.000000 
"/>
<path fill="none" opacity="1.000000" stroke="#000000" stroke-linecap="round" stroke-linejoin="round" stroke-width="15.000000"
	d="
M1596.500000,858.500000 
	C1597.084595,862.263062 1599.420166,864.957642 1602.000732,867.499329 
	C1607.828125,873.239014 1613.395752,879.213440 1617.980713,886.013000 
	C1621.126465,890.677856 1625.543213,892.947266 1631.000000,893.500000 
"/>
<path fill="none" opacity="1.000000" stroke="#000000" stroke-linecap="round" stroke-linejoin="round" stroke-width="13.000000"
	d="
M1650.500000,930.000000 
	C1649.921875,924.455688 1648.121094,919.779663 1643.597046,915.887146 
	C1637.801270,910.900208 1633.904541,904.327332 1631.527100,896.991211 
	C1630.813110,894.788025 1630.855225,892.535156 1633.010986,891.015564 
	C1636.031738,888.886292 1635.930786,886.101501 1635.012329,882.996399 
	C1632.309814,873.860962 1634.953125,863.858704 1630.017700,854.748352 
	C1624.009033,851.152832 1617.153076,854.300354 1610.496704,854.174438 
	C1606.092163,854.091125 1601.273315,854.385010 1597.525879,857.530884 
	C1596.035522,858.781921 1594.708252,857.774170 1593.519897,857.430908 
	C1584.649780,854.868591 1584.190796,854.549988 1579.678955,861.614258 
	C1577.384277,865.207092 1573.959351,865.342651 1571.018188,867.031677 
	C1562.466919,871.942444 1553.971313,876.952209 1545.517944,882.029907 
	C1543.067627,883.501770 1540.960693,885.565063 1538.465332,886.936890 
	C1535.802734,888.400513 1533.773926,890.346436 1532.530396,893.014160 
	C1530.417236,897.547791 1526.378174,898.751892 1522.000000,899.500000 
"/>
<path fill="none" opacity="1.000000" stroke="#000000" stroke-linecap="round" stroke-linejoin="round" stroke-width="9.000000"
	d="
M1054.000000,666.000000 
	C1051.281616,671.230957 1050.176514,677.137268 1046.603638,682.075012 
	C1043.902710,685.807983 1041.429810,689.150635 1036.512573,690.067261 
	C1031.860840,690.934387 1027.321777,692.419373 1022.500000,692.000000 
"/>
<path fill="none" opacity="1.000000" stroke="#000000" stroke-linecap="round" stroke-linejoin="round" stroke-width="13.000000"
	d="
M1510.000000,982.500000 
	C1510.000000,982.666687 1510.054565,982.857910 1509.992188,982.996521 
	C1506.804565,990.080627 1508.396729,996.995544 1510.445068,1004.016052 
	C1512.343018,1010.521851 1510.487061,1017.322021 1511.826172,1024.034668 
	C1513.587280,1032.862915 1513.718872,1041.945923 1513.621460,1051.001343 
	C1513.589844,1053.952759 1512.065796,1056.533203 1512.465698,1059.504639 
	C1513.406006,1066.490234 1514.079712,1073.511963 1515.045166,1080.493774 
	C1515.403564,1083.085938 1515.590698,1085.602173 1514.478882,1087.990112 
	C1512.197998,1092.888550 1512.410156,1098.132690 1513.682739,1102.951782 
	C1515.115234,1108.376343 1515.413696,1113.664795 1514.416382,1118.984375 
	C1513.372070,1124.554443 1514.034058,1129.980713 1514.408325,1135.506226 
	C1514.699707,1139.808594 1514.523682,1144.216797 1513.923950,1148.489380 
	C1512.749023,1156.859009 1513.923828,1165.198730 1514.225708,1173.491821 
	C1514.594116,1183.617065 1512.679932,1193.493652 1512.573120,1203.500732 
	C1512.477051,1212.495483 1510.705444,1221.574219 1513.149536,1230.458862 
	C1513.507935,1231.762085 1512.890259,1234.749023 1516.000000,1234.500000 
"/>
<path fill="none" opacity="1.000000" stroke="#000000" stroke-linecap="round" stroke-linejoin="round" stroke-width="12.000000"
	d="
M1437.000000,1155.750000 
	C1433.320923,1157.185425 1434.232788,1160.513428 1434.602173,1162.984741 
	C1436.909302,1178.417603 1437.758057,1193.934082 1437.385864,1209.497314 
	C1437.285767,1213.684570 1436.717041,1217.722900 1439.000000,1221.500000 
"/>
<path fill="none" opacity="1.000000" stroke="#000000" stroke-linecap="round" stroke-linejoin="round" stroke-width="14.000000"
	d="
M1667.000000,1148.500000 
	C1664.781616,1156.525391 1665.445312,1164.866943 1664.805542,1173.023926 
	C1664.321289,1179.198242 1665.888062,1185.634033 1665.486206,1191.999146 
	C1665.132202,1197.608643 1664.760742,1203.287842 1662.430054,1208.468506 
	C1660.597656,1212.541382 1661.940552,1216.529419 1662.090210,1220.496582 
	C1662.574951,1233.339111 1662.649902,1246.165771 1662.005371,1259.000244 
	C1661.478271,1269.498901 1661.021362,1280.001099 1660.479248,1290.498901 
	C1660.388550,1292.252808 1660.942993,1293.685669 1662.000000,1295.000000 
"/>
<path fill="none" opacity="1.000000" stroke="#000000" stroke-linecap="round" stroke-linejoin="round" stroke-width="10.000000"
	d="
M1519.000000,904.500000 
	C1514.450806,905.173218 1510.961426,907.257568 1507.898315,910.914856 
	C1502.916992,916.862488 1499.316772,923.656738 1495.048096,930.032166 
	C1493.287720,932.661072 1492.587036,935.792725 1492.500000,939.000000 
"/>
<path fill="none" opacity="1.000000" stroke="#000000" stroke-linecap="round" stroke-linejoin="round" stroke-width="13.000000"
	d="
M1090.500000,1001.000000 
	C1091.120239,1011.013306 1095.392090,1020.198669 1097.049805,1029.991577 
	C1098.603394,1039.168213 1098.750000,1048.330688 1097.372437,1057.480835 
	C1097.126831,1059.112671 1097.381714,1060.242554 1098.008179,1061.495972 
	C1103.137695,1071.758423 1102.421021,1083.691895 1107.349854,1094.071289 
	C1108.383057,1096.247314 1108.277100,1099.643066 1107.360229,1101.944336 
	C1104.077148,1110.184082 1107.462036,1117.762817 1109.054077,1125.488892 
	C1110.974243,1134.807251 1115.508423,1143.561279 1114.650879,1153.512939 
	C1114.493042,1155.344360 1115.041260,1157.764038 1116.500000,1159.500000 
"/>
<path fill="none" opacity="1.000000" stroke="#000000" stroke-linecap="round" stroke-linejoin="round" stroke-width="11.000000"
	d="
M1405.500000,1136.000000 
	C1408.563477,1140.406372 1410.248291,1145.352661 1408.368286,1150.451416 
	C1406.685303,1155.015625 1406.962158,1159.164062 1408.497559,1163.500854 
	C1409.676147,1166.829956 1410.833374,1170.166626 1412.000000,1173.500000 
"/>
<path fill="none" opacity="1.000000" stroke="#000000" stroke-linecap="round" stroke-linejoin="round" stroke-width="12.000000"
	d="
M1027.000000,1272.000000 
	C1030.884399,1278.764160 1029.000000,1286.336914 1029.896729,1293.512939 
	C1030.350952,1297.148438 1031.160034,1300.748047 1031.119873,1304.501221 
	C1031.084839,1307.791138 1030.443726,1310.300659 1027.504395,1312.007446 
	C1019.260437,1316.794312 1012.098328,1323.259766 1003.500000,1327.500000 
"/>
<path fill="none" opacity="1.000000" stroke="#000000" stroke-linecap="round" stroke-linejoin="round" stroke-width="11.000000"
	d="
M1429.000000,983.500000 
	C1429.910767,989.032654 1429.655029,994.513367 1428.526489,1000.005432 
	C1427.372192,1005.622070 1428.226807,1011.335022 1428.010864,1017.000427 
	C1427.958252,1018.380249 1428.342285,1020.007202 1426.000000,1019.500000 
"/>
<path fill="none" opacity="1.000000" stroke="#000000" stroke-linecap="round" stroke-linejoin="round" stroke-width="3.000000"
	d="
M1501.000000,76.500000 
	C1502.500000,86.833336 1504.000244,97.166634 1505.499756,107.500038 
	C1505.668945,108.666328 1505.833374,109.833328 1506.000000,111.000000 
"/>
<path fill="none" opacity="1.000000" stroke="#000000" stroke-linecap="round" stroke-linejoin="round" stroke-width="13.000000"
	d="
M1064.000000,106.500000 
	C1063.642090,108.006157 1064.613159,109.177330 1064.978027,110.506035 
	C1065.845337,113.664009 1065.768188,116.237175 1062.576050,118.602615 
	C1056.981567,122.748344 1053.400879,129.198578 1046.550293,132.117996 
	C1042.290039,133.933548 1037.984009,135.191788 1033.491943,135.952255 
	C1032.132690,136.182343 1031.229858,136.396530 1031.500000,138.000000 
"/>
<path fill="none" opacity="1.000000" stroke="#000000" stroke-linecap="round" stroke-linejoin="round" stroke-width="9.000000"
	d="
M1193.000000,1289.500000 
	C1181.278809,1296.289307 1169.001465,1302.352295 1161.000000,1314.000000 
"/>
<path fill="none" opacity="1.000000" stroke="#000000" stroke-linecap="round" stroke-linejoin="round" stroke-width="7.000000"
	d="
M1584.000000,885.000000 
	C1572.935547,892.744629 1566.537842,904.836365 1556.984863,913.984192 
	C1554.782227,916.093384 1554.211670,918.009949 1556.470581,920.526428 
	C1560.834229,925.387756 1564.791626,930.107971 1565.468994,937.456787 
	C1565.764282,940.659424 1565.809448,944.195251 1566.500000,947.500000 
"/>
<path fill="none" opacity="1.000000" stroke="#000000" stroke-linecap="round" stroke-linejoin="round" stroke-width="10.000000"
	d="
M1440.000000,1221.500000 
	C1437.444214,1221.472046 1438.552612,1223.433960 1438.547974,1224.500244 
	C1438.487915,1238.382690 1439.285034,1252.178467 1440.710205,1266.029785 
	C1441.977783,1278.347778 1445.036133,1290.277710 1446.500000,1302.500000 
"/>
<path fill="none" opacity="1.000000" stroke="#000000" stroke-linecap="round" stroke-linejoin="round" stroke-width="13.000000"
	d="
M1068.000000,271.000000 
	C1069.115723,282.054382 1072.786743,292.469971 1076.000000,303.000000 
"/>
<path fill="none" opacity="1.000000" stroke="#000000" stroke-linecap="round" stroke-linejoin="round" stroke-width="10.000000"
	d="
M1508.000000,186.500000 
	C1505.593872,176.354660 1497.804199,171.864365 1488.991333,168.522964 
	C1485.544434,167.216141 1482.000000,166.166672 1478.500000,165.000000 
"/>
<path fill="none" opacity="1.000000" stroke="#000000" stroke-linecap="round" stroke-linejoin="round" stroke-width="20.000000"
	d="
M1050.000000,777.500000 
	C1049.396973,784.743652 1050.924194,791.852112 1051.296143,799.010620 
	C1051.704346,806.860413 1052.312622,814.678650 1053.000000,822.500000 
"/>
<path fill="none" opacity="1.000000" stroke="#000000" stroke-linecap="round" stroke-linejoin="round" stroke-width="16.000000"
	d="
M1053.000000,823.000000 
	C1053.833374,830.166687 1054.687744,837.330933 1055.486328,844.501526 
	C1055.708496,846.497437 1055.262817,848.277527 1054.044678,850.031006 
	C1050.832275,854.655090 1050.080811,859.940552 1049.936768,865.498352 
	C1049.651245,876.503906 1049.000000,887.500000 1048.500000,898.500000 
"/>
<path fill="none" opacity="1.000000" stroke="#000000" stroke-linecap="round" stroke-linejoin="round" stroke-width="9.000000"
	d="
M1509.000000,186.500000 
	C1506.828491,186.950302 1507.591675,188.686646 1507.512451,190.000748 
	C1507.024658,198.103806 1503.835815,200.889496 1495.503174,201.115982 
	C1493.709717,201.164734 1491.838623,201.391678 1490.000000,201.500000 
"/>
<path fill="none" opacity="1.000000" stroke="#000000" stroke-linecap="round" stroke-linejoin="round" stroke-width="15.000000"
	d="
M1691.750000,1344.500000 
	C1686.825073,1346.815918 1682.290771,1349.806763 1677.102661,1351.770996 
	C1673.910522,1352.979736 1671.008545,1352.551147 1668.000000,1353.000122 
	C1658.833252,1354.367798 1649.619385,1355.595459 1640.534912,1352.882935 
	C1638.407104,1352.247559 1637.295898,1353.226929 1636.026001,1354.040649 
	C1626.727295,1359.998779 1616.544678,1359.948242 1605.991455,1359.422241 
	C1598.286499,1359.038330 1590.288696,1356.942261 1583.058350,1357.928101 
	C1564.561157,1360.450073 1547.037231,1354.576538 1528.999390,1354.020752 
	C1524.503662,1353.882080 1520.000000,1354.000000 1515.500000,1354.000000 
"/>
<path fill="none" opacity="1.000000" stroke="#000000" stroke-linecap="round" stroke-linejoin="round" stroke-width="11.000000"
	d="
M1386.000000,234.500000 
	C1394.009766,240.713638 1401.933350,247.044434 1410.500000,252.500000 
"/>
<path fill="none" opacity="1.000000" stroke="#000000" stroke-linecap="round" stroke-linejoin="round" stroke-width="11.000000"
	d="
M1552.000000,1194.500000 
	C1551.955444,1202.063232 1552.060547,1209.609009 1553.975342,1217.006348 
	C1554.278931,1218.179321 1554.767578,1218.754395 1556.000000,1218.500000 
"/>
<path fill="none" opacity="1.000000" stroke="#000000" stroke-linecap="round" stroke-linejoin="round" stroke-width="8.000000"
	d="
M1377.000000,921.000000 
	C1372.443604,922.354919 1367.908325,921.133667 1363.528687,920.341492 
	C1359.813232,919.669434 1356.415894,919.431152 1353.007812,921.016724 
	C1351.186401,921.864136 1349.692627,921.043579 1347.975220,920.595093 
	C1345.573608,919.967957 1343.000000,920.000000 1340.500000,919.750000 
"/>
<path fill="none" opacity="1.000000" stroke="#000000" stroke-linecap="round" stroke-linejoin="round" stroke-width="12.000000"
	d="
M1514.500000,1235.000000 
	C1513.719971,1239.343750 1512.637451,1243.615356 1510.461426,1247.478271 
	C1509.174316,1249.763428 1508.959595,1251.864624 1510.509888,1253.992798 
	C1512.959351,1257.355469 1513.297607,1261.447388 1512.329590,1264.953003 
	C1510.218872,1272.598267 1513.100830,1280.454956 1510.580444,1288.026733 
	C1509.339355,1291.755493 1511.247192,1295.231812 1513.020752,1298.488647 
	C1513.718262,1299.769531 1514.721680,1300.895996 1514.500000,1302.500000 
"/>
<path fill="none" opacity="1.000000" stroke="#000000" stroke-linecap="round" stroke-linejoin="round" stroke-width="7.000000"
	d="
M1022.500000,521.000000 
	C1017.643555,522.449097 1014.388367,526.078064 1011.012268,529.512085 
	C1008.615601,531.949829 1006.333374,534.500061 1004.000061,537.000061 
"/>
<path fill="none" opacity="1.000000" stroke="#000000" stroke-linecap="round" stroke-linejoin="round" stroke-width="18.000000"
	d="
M1651.500000,936.000000 
	C1651.500000,934.166687 1651.500000,932.333313 1651.500000,930.310303 
	C1640.135132,934.685242 1628.281006,933.933594 1616.500366,934.042908 
	C1614.289429,934.063477 1612.024414,934.971252 1610.063965,935.677612 
	C1600.475464,939.131897 1590.677490,937.335510 1580.999756,937.349365 
	C1576.248901,937.356201 1571.829224,940.442871 1567.000000,938.500000 
"/>
<path fill="none" opacity="1.000000" stroke="#000000" stroke-linecap="round" stroke-linejoin="round" stroke-width="16.000000"
	d="
M1375.750000,904.500000 
	C1376.093140,909.196716 1376.800537,913.859497 1377.295532,918.521729 
	C1377.662720,921.980652 1379.250000,923.855469 1381.444214,926.055664 
	C1387.189575,931.817078 1393.796387,933.744385 1401.998657,933.783020 
	C1410.327393,933.822327 1418.966919,934.067200 1426.992676,937.268250 
	C1430.739990,938.762756 1434.688721,937.984619 1438.514893,938.340088 
	C1445.127808,938.954346 1451.708130,940.460876 1458.555054,938.716064 
	C1461.777222,937.894897 1465.240967,940.621094 1469.000122,940.617615 
	C1477.029297,940.610291 1484.954102,938.730408 1493.500000,939.548157 
	C1493.500000,942.816650 1493.500000,946.158325 1493.500000,949.500000 
"/>
<path fill="none" opacity="1.000000" stroke="#000000" stroke-linecap="round" stroke-linejoin="round" stroke-width="18.000000"
	d="
M1522.500000,937.000000 
	C1525.111938,938.607788 1527.952271,939.027039 1530.999756,939.042725 
	C1539.333740,939.085449 1547.667603,939.296814 1555.999512,939.520020 
	C1558.899170,939.597656 1561.721069,939.295654 1564.500000,938.500000 
"/>
<path fill="none" opacity="1.000000" stroke="#000000" stroke-linecap="round" stroke-linejoin="round" stroke-width="10.000000"
	d="
M1413.000000,1173.500000 
	C1412.034424,1173.534424 1411.388794,1173.772583 1411.483032,1175.001343 
	C1412.328125,1186.013916 1410.327881,1196.989258 1411.034668,1207.997803 
	C1411.110718,1209.180908 1411.666626,1210.333374 1412.000000,1211.500000 
"/>
<path fill="none" opacity="1.000000" stroke="#000000" stroke-linecap="round" stroke-linejoin="round" stroke-width="5.000000"
	d="
M1066.500000,824.500000 
	C1062.264160,824.423523 1058.043091,824.470398 1054.000000,826.000000 
"/>
<path fill="none" opacity="1.000000" stroke="#000000" stroke-linecap="round" stroke-linejoin="round" stroke-width="3.000000"
	d="
M1725.000000,920.500000 
	C1725.166626,924.166687 1725.333374,927.833313 1725.500000,931.500000 
"/>
<path fill="none" opacity="1.000000" stroke="#000000" stroke-linecap="round" stroke-linejoin="round" stroke-width="8.000000"
	d="
M1051.500000,498.750000 
	C1050.166626,500.000000 1048.322510,501.007599 1047.593384,502.544312 
	C1045.152832,507.687500 1039.907593,506.336090 1035.960938,507.901367 
	C1035.422852,508.114716 1035.600708,506.683167 1035.500000,506.000000 
"/>
<path fill="none" opacity="1.000000" stroke="#000000" stroke-linecap="round" stroke-linejoin="round" stroke-width="3.000000"
	d="
M1009.000061,704.500000 
	C1009.166687,706.833313 1009.333374,709.166687 1009.500061,711.500000 
"/>
<path fill="none" opacity="1.000000" stroke="#000000" stroke-linecap="round" stroke-linejoin="round" stroke-width="3.000000"
	d="
M1306.000000,1344.500000 
	C1306.166748,1346.833374 1306.333374,1349.166626 1306.500000,1351.500000 
"/>
<path fill="none" opacity="1.000000" stroke="#000000" stroke-linecap="round" stroke-linejoin="round" stroke-width="3.000000"
	d="
M1751.500000,1001.000000 
	C1749.140991,1000.846436 1746.956299,999.473022 1744.500000,1000.000000 
"/>
<path fill="none" opacity="1.000000" stroke="#000000" stroke-linecap="round" stroke-linejoin="round" stroke-width="3.000000"
	d="
M1541.500000,818.500000 
	C1541.666626,820.666687 1541.833374,822.833313 1542.000000,825.000000 
"/>
</svg>